<svg id="Capa_1" data-name="Capa 1" xmlns="http://www.w3.org/2000/svg" viewBox="0 0 879 181"><defs><style>.cls-1{fill:#5f0091;}.cls-2{fill:#545454;}.cls-3{fill:#fff;}</style></defs><title>logo-global-work-support</title><path class="cls-1" d="M167.7,136.4A12.87,12.87,0,0,0,147,121.1c-28.3,38.3-85.6,38.3-113.9,0a12.87,12.87,0,0,0-20.7,15.3C51,188.5,129.1,188.5,167.7,136.4Z"/><path class="cls-1" d="M94.1,52a39.45,39.45,0,1,0,35.2,43.3A39.41,39.41,0,0,0,94.1,52ZM90,109.3a18.05,18.05,0,1,1,18.1-18A18,18,0,0,1,90,109.3Z"/><path class="cls-1" d="M167.7,46.1A12.87,12.87,0,0,1,147,61.4c-28.3-38.3-85.6-38.3-113.9,0A12.87,12.87,0,0,1,12.4,46.1C51-6.1,129.1-6.1,167.7,46.1Z"/><path class="cls-2" d="M284.2,88.8v17.4c0,18.5-14.5,32.6-40.4,32.6s-40.5-14.1-40.5-36.8V78.3c0-22.7,14.6-36.8,40.5-36.8,20.2,0,32.9,8.3,38.4,23,1.3,3.8.4,5.8-3.5,7.1l-14.1,5c-4.1,1.3-5.7.5-7.1-3.5-2.4-5.9-6.3-8.5-13.7-8.5-10.4,0-14.5,4.5-14.5,13.7v23.9c0,9.2,4.1,13.7,14.5,13.7,8.8,0,14.2-3.3,14.2-8.9v-2.6H245.4c-4.1,0-5.5-1.3-5.5-5.5V89c0-4.2,1.4-5.7,5.5-5.7h33.3C282.9,83.1,284.2,84.6,284.2,88.8Z"/><path class="cls-2" d="M313.1,136.8H298.6c-3.8,0-5-1.3-5-5V44.5c0-3.7,1.2-5,5-5h14.5c3.7,0,5,1.3,5,5v87.3C318.1,135.5,316.8,136.8,313.1,136.8Z"/><path class="cls-2" d="M360,66.4c21.6,0,32.6,10.9,32.6,28.8V110c0,17.9-11,28.8-32.6,28.8-21.3,0-32.6-10.9-32.6-28.8V95.2C327.4,77.4,338.7,66.4,360,66.4Zm0,21.1c-5.4,0-8.2,2.5-8.2,7.1v16c0,4.6,2.8,7,8.2,7s8.3-2.4,8.3-7v-16C368.3,90,365.6,87.5,360,87.5Z"/><path class="cls-2" d="M426.2,44.6V67.2a61.32,61.32,0,0,1,8.9-.8c20.2,0,29.6,10.4,29.6,28.3v14.2c0,19.3-10.5,29.8-32.1,29.8-11.6,0-21-2.4-25.9-4.5-4.5-2.1-5.1-3.3-5.1-7.8V44.6c0-3.8,1.3-5,5.1-5H421C424.8,39.6,426.2,40.8,426.2,44.6Zm6.5,43a34.68,34.68,0,0,0-6.6.9v27.6c0,.3,0,.5.3.7a18,18,0,0,0,5.7.7c5.5,0,8.2-2.2,8.2-7.2v-16C440.2,89.8,437.5,87.6,432.7,87.6Z"/><path class="cls-2" d="M502.8,66.4c23.3,0,30.6,11.6,30.6,28.4v32.3c0,4.9-1.1,6.3-5,7.9-5.3,2.2-14.1,3.7-26,3.7-24.7,0-31.3-7.1-31.3-21.8,0-17.1,9.5-22,31.9-22,2.2,0,4.5.1,5.9.1V91.7c0-4.3-2-6.7-7.4-6.7a9.71,9.71,0,0,0-8.5,4.5c-1.7,2.4-3,3.4-7.2,1.7l-9.5-3.9c-3.5-1.6-4.7-3.4-2.8-7.2C478.3,71,488.1,66.4,502.8,66.4Zm-.8,45.1c-5.7,0-7,2.4-7,5.3s1.2,5.3,6.7,5.3a32.36,32.36,0,0,0,6.6-.4c.4,0,.7-.1.7-.7v-9.3C507.3,111.5,504.2,111.5,502,111.5Z"/><path class="cls-2" d="M563,136.8H548.5c-3.8,0-5-1.3-5-5V44.5c0-3.7,1.2-5,5-5H563c3.7,0,5,1.3,5,5v87.3C568,135.5,566.7,136.8,563,136.8Z"/><path class="cls-2" d="M673.7,74.2l-15.5,58.1c-.9,3.4-3,4.5-6.8,4.5H638.5c-3.8,0-6.2-.9-7-4.5l-4.2-17.6A156.4,156.4,0,0,1,624.9,96H624a150.88,150.88,0,0,1-2.8,18.7l-4.3,17.6c-.9,3.5-3.2,4.5-6.8,4.5h-12c-3.8,0-5.9-1.1-7-4.5L575.5,74.2c-1.4-4.5-.7-5.8,4.2-5.8H592c6,0,7.6.8,8.4,5l3.2,17.5c1.2,6.8,1.6,20.5,1.6,20.5h1.1s.7-13.5,2.1-20.5l3.9-17.4c.8-4.3,2.4-5.1,8.4-5.1h8.4c5.9,0,7.4.8,8.3,5l4.1,17.5c1.6,7.2,2.1,20.5,2.1,20.5h1.1s.3-12.9,1.6-20.5l3.2-17.4c.7-4.2,2.1-5.1,8.3-5.1h11.8C674.3,68.4,675.1,69.7,673.7,74.2Z"/><path class="cls-2" d="M710.3,66.4c21.6,0,32.6,10.9,32.6,28.8V110c0,17.9-11,28.8-32.6,28.8-21.3,0-32.6-10.9-32.6-28.8V95.2C677.7,77.4,689.1,66.4,710.3,66.4Zm0,21.1c-5.4,0-8.2,2.5-8.2,7.1v16c0,4.6,2.8,7,8.2,7s8.3-2.4,8.3-7v-16C718.6,90,715.9,87.5,710.3,87.5Z"/><path class="cls-2" d="M788.2,66.4c3.8,0,5,1.3,5,5V82.6c0,3.8-1.2,5.1-5,5.1h-5a28,28,0,0,0-6,.5.71.71,0,0,0-.7.8v42.7c0,3.7-1.3,5-5.1,5H757c-3.8,0-5.1-1.3-5.1-5V78.5c0-4.3,1.1-6.2,5.5-7.9,5.1-2,13.9-3.8,26.7-4.2Z"/><path class="cls-2" d="M860.2,136.8H848.1c-6,0-8-.8-9.6-5L832.6,116c-1.2-2.8-3-3.9-6-3.9h-2.4v19.6c0,3.8-1.3,5.1-5.1,5.1H804.8c-3.8,0-5-1.3-5-5.1v-87c0-3.8,1.2-5.1,5-5.1h14.3c3.8,0,5.1,1.3,5.1,5.1V92.2H827l11-18.9c2.1-3.9,3.8-4.7,9.5-4.7h11.7c5.3,0,6.4,2.5,4.1,6.4l-14.9,25.5a17.67,17.67,0,0,1,4.3,5.9l11.6,23.8C866.6,134.7,865.6,136.8,860.2,136.8Z"/><rect class="cls-2" x="203.3" y="145.81" width="662.16" height="28" rx="5"/><path class="cls-3" d="M487.49,150.93c3.55,0,5.56,1.06,6.69,3.36.34.7.15,1.06-.57,1.34l-2.4,1c-.65.28-.92.19-1.3-.51a2.45,2.45,0,0,0-2.42-1.25c-1.64,0-2.28.41-2.28,1.25,0,1,1.41,1.25,3.14,1.47,2.78.38,6.38,1.05,6.38,5.59,0,3.53-3.19,5.47-7.44,5.47-3.57,0-6.07-1.22-7-3.72-.27-.72-.05-1.05.65-1.32l2.25-.81c.72-.24,1.06-.17,1.42.52a2.79,2.79,0,0,0,2.71,1.28c1.61,0,2.57-.34,2.57-1.37s-1.22-1.2-2.81-1.42c-2.81-.38-6.74-.89-6.74-5.54C480.36,153.14,482.9,150.93,487.49,150.93Z"/><path class="cls-3" d="M503.52,164.49c1.65,0,2.49-.79,2.49-2.21v-10c0-.75.24-1,1-1h2.71c.77,0,1,.26,1,1v9.77c0,4-2.5,6.62-7.25,6.62s-7.23-2.59-7.23-6.62V152.3c0-.75.24-1,1-1H500c.77,0,1,.26,1,1v10C501,163.7,501.86,164.49,503.52,164.49Z"/><path class="cls-3" d="M526.87,157.29c0,3.79-2.43,5.93-6.15,5.93h-3v4.1c0,.75-.24,1-1,1h-2.71c-.77,0-1-.26-1-1v-15c0-.75.26-1,1-1h6.63C524.42,151.29,526.87,153.47,526.87,157.29Zm-4.92,0a1.67,1.67,0,0,0-1.8-1.78h-2.38V159h2.38A1.65,1.65,0,0,0,522,157.27Z"/><path class="cls-3" d="M542.4,157.29c0,3.79-2.43,5.93-6.15,5.93h-3v4.1c0,.75-.24,1-1,1h-2.71c-.77,0-1-.26-1-1v-15c0-.75.26-1,1-1h6.62C540,151.29,542.4,153.47,542.4,157.29Zm-4.92,0a1.67,1.67,0,0,0-1.8-1.78H533.3V159h2.38A1.66,1.66,0,0,0,537.48,157.27Z"/><path class="cls-3" d="M551.06,150.93c4.73,0,7.37,2.57,7.37,6.72V162c0,4.15-2.64,6.72-7.37,6.72s-7.39-2.57-7.39-6.72v-4.32C543.67,153.5,546.31,150.93,551.06,150.93Zm0,4.2c-1.68,0-2.64.79-2.64,2.31v4.75c0,1.51,1,2.3,2.64,2.3s2.62-.79,2.62-2.3v-4.75C553.68,155.92,552.72,155.13,551.06,155.13Z"/><path class="cls-3" d="M574.29,157.07a5.29,5.29,0,0,1-2.59,5,6.22,6.22,0,0,1,.65,1l2.16,4.11c.33.64.17,1.17-.63,1.17h-2.59c-1.27,0-1.82-.31-2.21-1.15l-1.53-3.29a1.77,1.77,0,0,0-1.8-1.22h-.55v4.65c0,.75-.24,1-1,1h-2.71c-.77,0-1-.26-1-1v-15c0-.75.27-1,1-1h6.84C571.94,151.29,574.29,153.35,574.29,157.07Zm-6.5-1.58H565.2v3.17h2.59a1.47,1.47,0,0,0,1.58-1.61A1.43,1.43,0,0,0,567.79,155.49Z"/><path class="cls-3" d="M589.08,152.3v2.16c0,.77-.27,1-1,1h-3.55v11.83c0,.75-.26,1-1,1h-2.71c-.77,0-1-.26-1-1V155.49h-3.58c-.76,0-1-.26-1-1V152.3c0-.75.24-1,1-1H588C588.81,151.29,589.08,151.55,589.08,152.3Z"/></svg>